<?xml version="1.0" standalone="no"?>
<!DOCTYPE svg PUBLIC "-//W3C//DTD SVG 1.1//EN" "http://www.w3.org/Graphics/SVG/1.1/DTD/svg11.dtd">
<svg xmlns="http://www.w3.org/2000/svg">
<metadata>Copyright (C) 2016 by original authors @ fontello.com</metadata>
<defs>
<font id="mobile_analytics_ios" horiz-adv-x="1000" >
<font-face font-family="mobile_analytics_ios" font-weight="400" font-stretch="normal" units-per-em="1000" ascent="850" descent="-150" />
<missing-glyph horiz-adv-x="1000" />
<glyph glyph-name="navi_cancel" unicode="&#xe800;" d="M500 393l-437 437-43-43 437-437-437-437 43-43 437 437 437-437 43 43-437 437 437 437-43 43-437-437z" horiz-adv-x="1000" />

<glyph glyph-name="delete_in_list" unicode="&#xe801;" d="M908 830l-408-408-408 408-72-72 408-408-408-408 72-72 408 408 408-408 72 72-408 408 408 408-72 72z" horiz-adv-x="1000" />

<glyph glyph-name="navi_back" unicode="&#xe802;" d="M700 830l-480-480 480-480 72 72-408 408 408 408-72 72z" horiz-adv-x="1000" />

<glyph glyph-name="arrow_in_list_right" unicode="&#xe803;" d="M292 830l480-480-480-480-72 72 408 408-408 408 72 72z" horiz-adv-x="1000" />

<glyph glyph-name="navi_more" unicode="&#xe804;" d="M840 280h140v140h-140v-140z m-400 0h140v140h-140v-140z m-420 0h140v140h-140v-140z" horiz-adv-x="1000" />

<glyph glyph-name="checkmark_empty" unicode="&#xe805;" d="M500 830c-265 0-480-215-480-480 0-265 215-480 480-480s480 215 480 480c0 265-215 480-480 480z m0-900c-232 0-420 188-420 420 0 232 188 420 420 420s420-188 420-420c0-232-188-420-420-420z" horiz-adv-x="1000" />

<glyph glyph-name="checkmark" unicode="&#xe806;" d="M500 830c265 0 480-215 480-480s-215-480-480-480-480 215-480 480 215 480 480 480l0 0z m0-900c232 0 420 188 420 420s-188 420-420 420-420-188-420-420 188-420 420-420l0 0z m-78 203l0 0 0 0-212 212 42 42 170-170 325 325 43-42-368-367z" horiz-adv-x="1000" />

<glyph glyph-name="checkmark_area" unicode="&#xe807;" d="M422 133l-212 212 42 42 170-170 325 325 43-42-368-367z m78 697c-265 0-480-215-480-480s215-480 480-480 480 215 480 480-215 480-480 480l0 0z" horiz-adv-x="1000" />

<glyph glyph-name="search" unicode="&#xe808;" d="M80 440c0 182 148 330 330 330s330-148 330-330-148-330-330-330-330 148-330 330l0 0z m900-515l-268 268c55 67 88 153 88 247 0 215-175 390-390 390s-390-175-390-390 175-390 390-390c94 0 180 33 247 88l268-268 55 55z" horiz-adv-x="1000" />

<glyph glyph-name="share" unicode="&#xe809;" d="M500 830l-141-142 42-43 69 69v-464h60v465l69-69 42 43-141 141z m110-258v-60h170v-582h-560v582h170v60h-230v-702h680v702h-230z" horiz-adv-x="1000" />

<glyph glyph-name="trash" unicode="&#xe80a;" d="M680 730v100h-360v-100h-200v-60h55l0 0 73-800h502l73 800 0 0h57v60h-200z m-300 40h240v-40h-240v40z m316-840h-392l-68 740h529l-69-740z m-335 73l-41 581h60l41-581h-60z m109 0v581h60v-581h-60z m106 0l41 581h60l-41-581h-60z" horiz-adv-x="1000" />

<glyph glyph-name="modiï¬ed_caption" unicode="&#xe80b;" d="M732 830l-656-656-56-304 304 56 656 656-248 248z m-105-208l104 104 145-145-104-104-145 145z m-446-446l389 389 145-145-389-389-145 145z m-52-56l141-141-174-33 33 174z" horiz-adv-x="1000" />

<glyph glyph-name="photo_uploader_add_photo" unicode="&#xe80c;" d="M130 570h-110v60h110v110h60v-110h110v-60h-110v-110h-60v110z m421-190c-75 0-138-62-138-140 0-77 62-140 138-140s138 64 138 140-62 140-138 140z m429 132v-544c0-16-13-28-28-28h-794c-16 0-28 13-28 28v432h150v140h103v90h288c11 0 21-6 25-16l37-74h218c16 0 29-13 29-28z m-231-273c0 107-86 200-198 200-106 0-198-87-198-200 0-107 86-200 198-200s198 93 198 200z" horiz-adv-x="1000" />

<glyph glyph-name="photo_uploader_retake" unicode="&#xe80d;" d="M881 504c-23 0-40 18-40 40 0 23 18 40 40 40 23 0 40-18 40-40s-19-40-40-40m-354-401v68c72 0 131 59 131 131 0 72-59 131-131 131-67 0-122-50-130-115h71l-106-142-92 141h59c8 102 94 183 198 183 109 0 198-89 198-198 0-109-89-199-198-199m425 537h-222v102c0 15-13 28-28 28h-404c-15 0-28-13-28-28v-102h-222c-15 0-28-13-28-28v-663c0-16 13-29 28-29h903c16 0 28 13 28 28v664c1 15-12 28-27 28" horiz-adv-x="1000" />

<glyph glyph-name="fr_branch_selected" unicode="&#xe80e;" d="M839 44l0 0-33-33-33 33-45 45 33 33 45-45 84 83 33-33-84-83z m-672 222c-49 0-88 39-88 88s39 88 88 88c49 0 88-39 88-88s-39-88-88-88l0 0z m594 393l45-45 84 84 33-33-84-84 0 0-33-33-33 33-45 45 33 33z m65-426c-71 0-130-50-144-118h-211v479h211c14-67 73-118 144-118 81 0 147 66 147 147s-67 147-148 147c-71 0-130-50-144-118h-269v-5-53-210h-101c-14 67-73 118-144 118-81-1-147-66-147-147s66-147 147-147c71 0 130 50 144 118h101v-210-56-3h270c14-67 73-118 144-118 81 0 147 66 147 147 0 81-66 147-147 147l0 0z" horiz-adv-x="1000" />

<glyph glyph-name="fr_collapse" unicode="&#xe80f;" d="M20 400h960v-100h-960v100z" horiz-adv-x="1000" />

<glyph glyph-name="fr_expand" unicode="&#xe810;" d="M980 300h-430v-430h-100v430h-430v100h430v430h100v-430h430v-100z" horiz-adv-x="1000" />

<glyph glyph-name="prompt_attribute_expended" unicode="&#xe811;" d="M500 830l-480-480 480-480 480 480-480 480z" horiz-adv-x="1000" />

<glyph glyph-name="prompt_attribute" unicode="&#xe812;" d="M500 830l-480-480 480-480 480 480-480 480z m-390-480l390 390 390-390-390-390-390 390z" horiz-adv-x="1000" />

<glyph glyph-name="navi_annotation" unicode="&#xe813;" d="M20 700v-60-520-60h60 151l187-187 0 0 0 0 191 187h151 60v400h-60v-340h-177l-164-163-163 163h-176v520h490v60h-550z m880 130l-60-60 72-72 60 60-72 72z m-490-553l94 23-71 70-23-93z m60 130l72-72 334 333-72 72-334-333z" horiz-adv-x="1000" />

<glyph glyph-name="navi_email_screen" unicode="&#xe814;" d="M20-20h960v740h-960v-740z m97 680h765l-382-383-383 383z m527-324l276 277v-553l-276 276z m-564 277l276-276-276-277v553z m536-305l268-268h-768l268 268 116-115 116 115z" horiz-adv-x="1000" />

<glyph glyph-name="navi_print" unicode="&#xe815;" d="M220 650h-60v60 60h60 560 60v-60-60h-60v60h-560v-60z m480-440h-400v-60h400v60z m280 400v-60-400-40-20h-150v-160h-660v160h-150v20 40 400 60h60 840 60z m-210-300h-540v-320h540v320z m150 240h-840v-400h90v220h660v-220h90v400z" horiz-adv-x="1000" />

<glyph glyph-name="fb_multimedia_excel" unicode="&#xe816;" d="M70 830v-60-840-60h60 740 60v692l-268 268h-592z m60-60h480v-211h-1v-60h261v-569h-740v840z m317-105l-86-108-86 108h-73l122-154-130-163h73l93 117 93-117h73l-130 163 124 154h-73z m183-555h180v60h-180v-60z m-220 0h180v60h-180v-60z m-220 0h180v60h-180v-60z m440-100h180v60h-180v-60z m-220 0h180v60h-180v-60z m-220 0h180v60h-180v-60z" horiz-adv-x="1000" />

<glyph glyph-name="add_comment" unicode="&#xe817;" d="M700 420h-170v-170h-60v170h-170v60h170v170h60v-170h170v-60z m210 410v-800h-258l-152-152 0 0 0 0-152 152h-258v800h820z m-60-60h-700v-680h223l127-127 127 127h223v680z" horiz-adv-x="1000" />

<glyph glyph-name="add_new_search" unicode="&#xe818;" d="M200 190h120v-60h-120v-120h-60v120h-120v60h120v120h60v-120z m150 220c0 127 103 230 230 230s230-103 230-230-103-230-230-230-230 103-230 230l0 0z m627-365l-176 177c43 50 69 116 69 188 0 160-130 290-290 290s-290-130-290-290 130-290 290-290c67 0 128 23 177 60l178-178 42 43z" horiz-adv-x="1000" />

<glyph glyph-name="add" unicode="&#xe819;" d="M470 830v-450h-450v-60h450v-450h60v450h450v60h-450v450h-60z" horiz-adv-x="1000" />

<glyph glyph-name="arrow_in_list_left" unicode="&#xe81a;" d="M700 830l-480-480 480-480 72 72-408 408 408 408-72 72z" horiz-adv-x="1000" />

<glyph glyph-name="back" unicode="&#xe81b;" d="M135 380h845v-60h-847l409-409-43-43-480 480 0 0 0 0 480 480 43-43-407-405z" horiz-adv-x="1000" />

<glyph glyph-name="check" unicode="&#xe81c;" d="M937 670l-559-559-315 315-43-43 358-358 602 602-43 43z" horiz-adv-x="1000" />

<glyph glyph-name="crop" unicode="&#xe81d;" d="M250 830v-230h-230v-60h230v-380-60h60 130 250 60 230v60h-230v380 60h-60-320v-60h320v-380h-380v200 180 60 230h-60z m440-960h60v170h-60v-170z" horiz-adv-x="1000" />

<glyph glyph-name="date_refresh" unicode="&#xe81e;" d="M500-70l19-60c-6 0-13 0-20 0-264 0-479 215-479 480 0 133 54 253 141 340h-121v60h220v-220h-60v114c-74-76-120-180-120-294 0-232 188-420 420-420 0 0 0 0 0 0z m480 420c0 265-215 480-480 480-8 0-16 0-25-1l19-60c2 0 3 0 5 0 232 0 420-188 420-420 0-114-46-218-120-294v115h-60v-220h220v60h-121c88 87 142 207 142 340z" horiz-adv-x="1000" />

<glyph glyph-name="delete_fill" unicode="&#xe81f;" d="M769 124l-42-42-227 226-226-227-42 42 226 227-227 226 42 42 227-226 226 226 42-42-226-226 227-226z m-269 706c-265 0-480-215-480-480s215-480 480-480 480 215 480 480-215 480-480 480l0 0z" horiz-adv-x="1000" />

<glyph glyph-name="down" unicode="&#xe820;" d="M937 610l-437-437-437 437-43-43 480-480 0 0 0 0 480 480-43 43z" horiz-adv-x="1000" />

<glyph glyph-name="download" unicode="&#xe821;" d="M100-70h800v-60h-800v60z m729 379l-42 41-257-258v738h-60v-738l-258 258-41-41 329-329 329 329z" horiz-adv-x="1000" />

<glyph glyph-name="drill" unicode="&#xe822;" d="M333 830l0 0 0 0-183-183 42-42 111 111v-526h60v526l111-111 42 42-183 183z m300-320v-526l-111 111-42-42 183-183 0 0v0l183 183-42 42-111-111v526h-60z" horiz-adv-x="1000" />

<glyph glyph-name="exit_fullscreen" unicode="&#xe823;" d="M920 720h-840-60v-200-480-60h60 840 60v60 480 200h-60z m0-680h-840v480h380v-263l-116 116-42-42 158-158v-3h3l23-23 4 4 4-4 23 23h3v3l158 158-42 42-116-116v263h400v-480z" horiz-adv-x="1000" />

<glyph glyph-name="express_loggle_tolaunchpad" unicode="&#xe824;" d="M20 830v-600h960v600h-960z m900-540h-840v480h840v-480z m-900-180h960v-60h-960v60z m0-180h480v-60h-480v60z" horiz-adv-x="1000" />

<glyph glyph-name="express_logout" unicode="&#xe825;" d="M932 139l-191 191-43-43 158-157h-352v-60h359l-158-158 43-42 184 184 42 42-42 43z m-722 203c-15-13-30-27-43-41-65-67-106-139-129-211-8-26-13-51-16-74-2-15-2-27-2-36v-2l1-30 60 3-1 30c0 6 0 15 2 28 2 19 7 41 14 64 20 64 57 128 114 187 12 13 25 25 40 37l23 20-39 45-24-20z m284 28c-110 0-200 90-200 200s90 200 200 200 200-90 200-200-90-200-200-200l0 0z m260 200c0 144-116 260-260 260s-260-116-260-260 116-260 260-260 260 116 260 260l0 0z" horiz-adv-x="1000" />

<glyph glyph-name="fb_barcode_keypad" unicode="&#xe826;" d="M370 830h260v-260h-260v260z m350 0h260v-260h-260v260z m-350-350h260v-260h-260v260z m350 0h260v-260h-260v260z m-700 350h260v-260h-260v260z m0-350h260v-260h-260v260z m0-350h260v-260h-260v260z m350 0h260v-260h-260v260z m350 0h260v-260h-260v260z" horiz-adv-x="1000" />

<glyph glyph-name="fb_document" unicode="&#xe827;" d="M20 830v-960h960v960h-960z m60-60h240v-840h-240v840z m840-840h-540v840h540v-840z m-760 630c0 22 18 40 40 40s40-18 40-40c0-22-18-40-40-40s-40 18-40 40z m80-210c0-22-18-40-40-40s-40 18-40 40c0 22 18 40 40 40s40-18 40-40z m0-210c0-22-18-40-40-40s-40 18-40 40c0 22 18 40 40 40s40-18 40-40z m230-110v540h60v-540h-60z m210 0h-60v400h60v-400z m150 0h-60v290h60v-290z" horiz-adv-x="1000" />

<glyph glyph-name="fb_folder_shortcut" unicode="&#xe828;" d="M860 670l0 0-440 0v55 35h-360-40v-715-35h480v60h-420v400h740v-100h60v300h-20z m-40-140h-740v170h280v-90h60v0h400v-80z m156-320l-15-26-85-148-52 30 52 90c-90-10-155-49-200-107-18-24-32-50-42-76-3-9-6-17-8-25-1-4-2-7-2-8l-5-30-59 10 5 30c2 9 6 24 13 43 12 31 28 62 50 92 51 67 124 113 222 128l-78 45 30 52 174-100z" horiz-adv-x="1000" />

<glyph glyph-name="fb_folder" unicode="&#xe829;" d="M20 760v-4-50-774h0v0h905 55 0v719h0v4h-534v101h0v4h-426z m55-55h317v-51-51-3h534v-79h-851v184z m0-238h851v-481h-851v481z" horiz-adv-x="1000" />

<glyph glyph-name="fb_graph" unicode="&#xe82a;" d="M95 183c0 29 23 52 52 52 12 0 22-4 31-10l126 96c-2 5-3 11-3 17 0 29 23 52 52 52 29 0 52-23 52-52l183-62c9 14 25 23 43 23 7 0 13-1 19-4l158 255c-8 9-12 21-12 34 0 29 23 52 52 52 29 0 52-23 52-52 0-29-23-52-52-52-4 0-7 0-10 1l-160-261c4-8 7-16 7-26 0-29-23-52-52-52-27 0-50 21-52 49l-185 62c-10-12-25-20-41-20-10 0-20 3-28 8l-128-97c1-4 2-9 2-14 0-29-24-52-52-52-31 1-54 24-54 53z m884 647v-959h-959v959h959z m-60-60h-839v-839h839v839z" horiz-adv-x="1000" />

<glyph glyph-name="fb_grid" unicode="&#xe82b;" d="M20-130h960v960h-960v-960z m660 906h247v-255h-247v255z m-301 0h247v-255h-247v255z m-306 0h253v-255h-253v255z m607-308h247v-249h-247v249z m-301 0h247v-249h-247v249z m-306 0h253v-249h-253v249z m607-302h247v-243h-247v243z m-301 0h247v-243h-247v243z m-306 0h253v-243h-253v243z" horiz-adv-x="1000" />

<glyph glyph-name="fb_list_view" unicode="&#xe82c;" d="M20 830v-260h260v260h-260z m200-200h-140v140h140v-140z m-200-500v-260h260v260h-260z m200-200h-140v140h140v-140z m-200 550v-260h260v260h-260z m200-200h-140v140h140v-140z m140 550h620v-60h-620v60z m0-140h480v-60h-480v60z m0-210h620v-60h-620v60z m0-140h480v-60h-480v60z m0-210h620v-60h-620v60z m0-140h480v-60h-480v60z" horiz-adv-x="1000" />

<glyph glyph-name="fb_multimedia_audio" unicode="&#xe82d;" d="M273 482h-254v-281h254l0 0 298-172v625l-298-172z m582 197l-39-39c145-164 145-410 1-574l38-38c166 186 166 466 0 651z m-82-82l-40-40c99-117 100-290 1-408l39-39c121 140 121 348 0 487z m-91-91l-39-39c50-67 50-159 1-226l39-39c70 89 70 215-1 304z" horiz-adv-x="1000" />

<glyph glyph-name="fb_multimedia_doc" unicode="&#xe82e;" d="M70 830v-60-840-60h60 740 60v692l-268 268h-592z m60-60h480v-211h-1v-60h261v-569h-740v840z m400-105l-65-231-65 231h-53l-65-231-65 231h-52l89-318h56l63 226 63-226h56l89 318h-51z m-340-555h620v60h-620v-60z m0-100h620v60h-620v-60z" horiz-adv-x="1000" />

<glyph glyph-name="fb_multimedia_ebook" unicode="&#xe82f;" d="M330 3h587v827h-827v-827-133h827v53h-774v81h187z m0 773h533v-720h-533v720z" horiz-adv-x="1000" />

<glyph glyph-name="fb_multimedia_html" unicode="&#xe830;" d="M500 830c-265 0-480-215-480-480 0-265 215-480 480-480s480 215 480 480c0 265-215 480-480 480z m-77-61c-86-64-151-158-183-267h-139c53 137 174 240 322 267z m50-33v-234h-177c33 97 96 180 177 234z m-400-386c0 34 4 67 12 99h143c-6-32-9-64-9-98 0-34 3-67 9-99h-143c-8 31-12 64-12 98z m28-152h139c32-110 98-204 186-269-150 27-272 131-325 269z m372-234c-82 54-145 136-177 234h177v-234z m0 288l0 0h-191c-7 32-10 64-10 98 0 34 4 67 10 98h192v-196z m425 250h-137c-32 109-97 203-182 267 147-28 267-131 319-267z m-371 234c82-54 145-136 178-234h-178v234z m0-288h192c7-32 10-65 10-98 0-34-4-67-10-98h-192v196z m0-250h178c-33-98-96-180-178-234v234z m49-268c87 64 153 158 185 268h137c-52-138-174-241-322-268z m198 322l0 0c6 32 9 65 9 99 0 34-3 66-9 98h140c8-32 12-65 12-99 0-34-4-66-12-98h-140z" horiz-adv-x="1000" />

<glyph glyph-name="fb_multimedia_image" unicode="&#xe831;" d="M821 591c-4-36-35-64-72-64h-1c-3 1-5 1-8 1-30 4-54 25-62 52-3 9-3 19-2 28 5 40 40 69 81 64 40-5 69-41 64-81z m158 239h-959v-959-1h960v960h-1z m-60-673l-129 195c-9 14-22 25-39 33-37 17-78 7-104-19l-60-64c-3-2-7-4-12-4h-3c-6 1-12 4-15 9l-125 185c-14 25-40 44-71 48-37 4-71-13-90-41l-191-261v532h839v-613z" horiz-adv-x="1000" />

<glyph glyph-name="fb_multimedia_pdf" unicode="&#xe832;" d="M414 264c-8 3-21 5-38 5h-47v-171h48c15 0 26 1 35 4 8 3 15 7 20 12 7 7 12 16 16 28 4 12 6 26 6 43 0 23-4 41-12 54-8 12-17 21-28 25m-209 3c-5 1-14 2-28 2h-57v-80h58c19 0 33 4 41 11 8 7 12 17 12 30 0 9-2 17-7 24-5 6-11 10-19 13m775 295v-692h-60-740-60v60 0h60v0h740v569h-261l1 60v211h-480v-330h-60v330 60h592l268-268z m-233-572v390h-727l0-390h727z m-221 305h151v-26h-122v-69h105v-26h-105v-101h-30v222z m-227 0h77c17 0 31-1 40-3 13-3 24-8 33-16 12-10 21-23 26-38 6-16 9-33 9-53 0-17-2-32-6-45-4-13-9-24-15-33-6-9-13-15-20-20-7-5-16-9-27-11-10-3-22-4-36-4h-81v223z m-208 0h84c15 0 26-1 34-2 11-2 20-5 28-10 7-5 13-12 18-22 5-9 7-19 7-30 0-19-6-35-18-48-12-13-34-20-66-20h-58v-91h-30v223z" horiz-adv-x="1000" />

<glyph glyph-name="fb_multimedia_ppt" unicode="&#xe833;" d="M979 68v753h-960v-752h467v-45l-183-106 26-45 157 91v-92h52v92l158-91 26 45-184 106v44h441z m-908 51v649h856v-649h-856z m360 427h138v-335h-138v335z m221 92h138v-427h-138v427z m-442-190h138v-238h-138v238z" horiz-adv-x="1000" />

<glyph glyph-name="fb_multimedia_unknown" unicode="&#xe834;" d="M70 830v-60-840-60h60 740 60v692l-268 268h-592z m60-60h480v-211h-1v-60h261v-569h-740v840z m357-632c-20 0-36-16-36-36 0-20 16-36 36-36 20 0 36 16 36 36 0 19-16 36-36 36m-48 387c-17-6-33-15-47-28-14-13-24-27-31-43-6-16-10-39-11-69 0-16 13-28 28-28 15 0 28 12 28 28 0 67 29 101 85 101 25 0 44-7 58-21 13-14 20-31 20-49 0-19-3-33-9-42-6-9-19-24-39-45-20-21-34-36-42-47-8-11-13-23-17-37-4-14-6-33-6-57h56c0 20 1 37 5 49 4 12 9 23 16 31 7 9 21 23 43 44 22 21 36 38 42 52 7 14 10 29 10 46 0 38-13 68-39 91-26 23-58 34-97 34-18-1-36-4-53-10z" horiz-adv-x="1000" />

<glyph glyph-name="fb_multimedia_video" unicode="&#xe835;" d="M380 159l332 191-332 192v-383z m120-229c-232 0-420 188-420 420s188 420 420 420 420-188 420-420-188-420-420-420m0 900c-265 0-480-215-480-480s215-480 480-480 480 215 480 480-215 480-480 480" horiz-adv-x="1000" />

<glyph glyph-name="fb_project" unicode="&#xe836;" d="M980 200l-111 630h-738l-111-630h0v-330h960l0 330 0 0z m-798 570h637l101-570h-242l-44-120h-272l-44 120h-237l101 570z m738-840h-840v210h196l44-120h356l44 120h200v-210z m-128 360h-584l11 60h562l11-60z m-28 160h-527l11 60h506l10-60z m-28 160h-471l11 60h449l11-60z" horiz-adv-x="1000" />

<glyph glyph-name="fb_report" unicode="&#xe837;" d="M70 830v-160h860v160h-860z m800-100h-740v40h740v-40z m0-120v-680h-740v680h-60v-680-60h60 740 60v740h-60z m-680-120h620v60h-620v-60z m0-210h620v60h-620v-60z m0-210h620v60h-620v-60z" horiz-adv-x="1000" />

<glyph glyph-name="fb_table_view" unicode="&#xe838;" d="M540 830v-440h440v440h-440z m380-380h-320v320h320v-320z m-900-60h440v440h-440v-440z m520-80v-440h440v440h-440z m380-380h-320v320h320v-320z m-900 380v-440h440v440h-440z m380-380h-320v320h320v-320z" horiz-adv-x="1000" />

<glyph glyph-name="fb_tile_view" unicode="&#xe839;" d="M20 830v-440h440v440h-440z m380-380h-320v320h320v-320z m-380-140v-440h440v440h-440z m380-380h-320v320h320v-320z m140 900v-440h440v440h-440z m380-380h-320v320h320v-320z m-380-140v-440h440v440h-440z m380-380h-320v320h320v-320z" horiz-adv-x="1000" />

<glyph glyph-name="fb_vi" unicode="&#xe83a;" d="M980 830v-60-840-60h-60-600v60h600v840h-840v-600h-60v600 60h60 840 60z m-480-815c-82 0-157 31-215 81l-223-223-42 42 224 225c-43 55-69 125-69 200 0 179 146 325 325 325s325-146 325-325c0-179-146-325-325-325z m-20 435h60v-382c25 4 48 10 70 20v292h60v-256c64 50 105 128 105 216 0 152-123 275-275 275s-275-123-275-275c0-97 50-181 125-230v180h60v-210c22-8 46-13 70-14v384z" horiz-adv-x="1000" />

<glyph glyph-name="fb_webdev_personal" unicode="&#xe83b;" d="M163-130c0 3 0 19 3 41 17 35 25 63 97 95 9 4 19 8 36 15 2 1 2 1 4 2 36 14 53 21 69 31 28 17 45 36 45 63v113 15l-11 9c-25 21-44 50-48 85l-1 11-9 8c-20 19-33 40-33 61 0 13 4 25 12 36l7 11-1 14c-1 6-3 12-5 22-1 3-5 19-7 24-3 11-5 20-7 28-3 14-5 26-5 35 0 110 74 179 195 179 38 0 74-11 91-29l7-8 10-2c46-8 87-69 87-140 0-24-4-48-12-75-2-6-11-34-13-40l-3-14 7-11c6-10 9-20 9-30 0-27-11-47-29-60l-11-9-1-14c-4-35-21-63-44-83l-11-9v-14-113c0-27 17-46 46-62 18-10 37-18 71-31-1 0 20-7 26-9 66-24 92-66 105-104 0 1 5-39 5-41h63c0 5-7 56-9 62-21 59-60 111-142 142-6 2-27 10-26 10-31 11-48 18-62 26-7 4-12 7-14 10v97c26 26 45 59 52 100 27 24 44 59 44 102 0 18-4 34-11 49 3 9 7 22 9 27 10 33 15 62 15 93 0 95-54 180-129 200-32 28-80 42-130 42-154 0-258-96-258-242 0-14 2-30 6-48 2-10 5-19 8-31 1-5 6-22 7-24s1-4 2-6c-9-18-15-37-15-59 0-38 18-71 45-99 7-43 28-78 57-105v-99c-3-2-8-6-14-10-13-8-27-14-60-27-2-1-2-1-4-2-18-7-28-11-39-16-86-39-104-74-129-129-4-9-8-60-8-64l61 1 0 0z" horiz-adv-x="1000" />

<glyph glyph-name="fb_webdev_team" unicode="&#xe83c;" d="M279 694c11 20 25 38 41 54-12 2-24 3-37 3-138-1-231-87-231-218 0-13 2-27 5-44 2-9 4-17 7-28 1-5 6-20 6-22 1-2 1-4 1-5-8-16-14-33-14-53 0-34 16-64 40-89 6-38 25-70 51-94v-71c-25-20-90-46-130-117v-120h60v90c4 23 15 44 86 90 25 16 40 33 40 57v83 13l-10 8c-23 19-40 45-43 76l-1 10-8 7c-18 17-29 36-29 55 0 12 4 23 11 32l7 10-1 14c-1 5-3 11-5 19-1 2-5 17-6 22-3 10-5 18-6 25-3 13-4 23-4 32-1 97 64 159 170 161z m572-587v71c26 25 45 56 51 94 24 25 40 54 40 89 0 19-5 37-14 53 0 2 1 3 1 5 1 2 5 17 6 22 3 11 5 19 7 28 4 16 5 31 5 44 0 131-93 217-232 217-12 0-25-1-37-3 17-15 31-33 41-54 106-2 171-63 171-161 0-8-1-19-4-32-2-7-4-15-6-25-1-5-5-19-6-22-2-8-4-14-5-19l-2-11 7-10c7-10 11-21 11-32 0-19-12-38-29-55l-8-7-1-10c-3-31-20-57-43-76l-10-8v-13-83c0-24 15-41 40-57 64-41 79-62 85-82v-80h60v100c-10 46-79 95-128 117z m-679-218c0 3 0 18 3 39 16 34 24 60 93 91 9 4 18 8 35 14 2 1 2 1 4 2 35 14 50 21 67 30 27 16 43 35 43 61v108 14l-11 9c-24 20-42 48-46 81l-2 12-8 8c-19 18-31 39-31 59 0 12 4 24 11 35l7 10-2 12c-1 6-3 12-5 21-1 3-5 18-7 23-3 10-5 19-7 27-3 14-4 25-4 34 0 105 71 172 187 172 37 0 71-11 88-28l7-7 10-2c45-8 83-66 83-135 0-24-4-46-12-72-2-6-10-32-12-38l-3-12 6-11c6-9 9-19 9-29 0-26-11-45-28-58l-11-9-1-13c-4-34-20-60-42-80l-10-9v-14-109c0-26 17-44 44-60 17-10 36-17 68-29-1 0 19-7 25-9 63-23 88-64 101-100 0 1 5-37 5-39h60c0 4-7 53-9 59-20 57-58 107-136 136-6 2-26 10-25 9-29 11-46 18-59 25-7 4-11 7-14 10v94c25 25 43 57 50 96 26 23 42 57 42 98 0 17-4 33-11 47 3 9 7 21 8 26 9 31 14 59 14 90 1 92-51 173-123 192-30 27-76 40-124 40-148 0-247-92-247-232 0-14 2-29 6-46 2-9 4-19 8-30 1-5 6-21 7-23s1-4 2-6c-9-17-14-36-14-56 0-37 17-68 43-95 7-41 27-74 54-101v-95c-3-2-7-6-14-9-12-7-26-13-58-26-4-1-4-1-6-2-18-7-27-11-37-15-83-37-100-71-124-123-4-8-7-58-8-62h61z" horiz-adv-x="1000" />

<glyph glyph-name="fr_hierarchy_drill_path" unicode="&#xe83d;" d="M980 20c0-83-67-150-150-150-73 0-133 52-147 120h-213v213c-62 13-110 64-119 127h-211v203c-68 14-120 74-120 147 0 83 67 150 150 150s150-67 150-150c0-73-52-133-120-147v-143h156c18 63 75 110 144 110 83 0 150-67 150-150 0-73-52-133-120-147v-153h153c14 68 74 120 147 120 83 0 150-67 150-150" horiz-adv-x="1000" />

<glyph glyph-name="hamburger" unicode="&#xe83e;" d="M980 830h-960v-60h960v60z m0-450h-960v-60h960v60z m0-450h-960v-60h960v60z" horiz-adv-x="1000" />

<glyph glyph-name="history_viewed" unicode="&#xe83f;" d="M500 830c-265 0-480-215-480-480s215-480 480-480 480 215 480 480-215 480-480 480z m0-900c-232 0-420 188-420 420s188 420 420 420 420-188 420-420-188-420-420-420z m30 460v320h-60v-320-60h60 280v60h-280z" horiz-adv-x="1000" />

<glyph glyph-name="home" unicode="&#xe840;" d="M179 349h60v-479h-60v479z m579 0h60v-479h-60v479z m-217 439l-42 42-43-42-437-438 42-42 438 437 437-437 43 42-438 438z" horiz-adv-x="1000" />

<glyph glyph-name="info" unicode="&#xe841;" d="M500 830c-265 0-480-215-480-480s215-480 480-480 480 215 480 480-215 480-480 480z m0-900c-232 0-420 188-420 420s188 420 420 420 420-188 420-420-188-420-420-420z m-30 520h60v-400h-60v400z m30 200c28 0 50-22 50-50s-22-50-50-50-50 22-50 50 22 50 50 50z" horiz-adv-x="1000" />

<glyph glyph-name="key" unicode="&#xe842;" d="M569 397l-18-8v-17-138-5l2-5 19-48 0-1 0-1-16-40-4-10 4-10 13-35 0-1 0-1-15-37-3-8 2-8 11-51-66-61-52 60-1 1 0 0 0 0v1 395 17l-16 7c0 0-1 0-1 1l0 0c-1 1-2 1-2 1l-2 1c-81 31-134 108-134 195 0 115 92 209 205 209 113 0 205-94 205-209 0-87-53-164-131-194m161 194c0 132-105 239-235 239s-235-107-235-239c0-99 60-187 150-223l0 0 2-1c0 0 0 0 1 0l0 0c0 0 0 0 1 0v-391-1-13l9-9 0 0 52-60 20-23 23 21 66 61 13 12-4 17-11 50 14 37 0 0 4 11-4 11 0 1-13 34 16 38 0 0 5 12-5 12 0 1-19 47v134l1 0 0 0c90 36 149 124 149 222m-234-8c-34 0-61 27-61 61 0 34 27 61 61 61s61-27 61-61c0-34-27-61-61-61m0 152c-50 0-91-41-91-91s41-91 91-91 91 41 91 91-41 91-91 91" horiz-adv-x="1000" />

<glyph glyph-name="learn_more" unicode="&#xe843;" d="M500 830c-265 0-480-215-480-480s215-480 480-480 480 215 480 480-215 480-480 480z m0-900c-232 0-420 188-420 420s188 420 420 420 420-188 420-420-188-420-420-420z m-280 140l356 204 204 356-356-204-204-356z m280 350c39 0 70-31 70-70s-31-70-70-70-70 31-70 70 31 70 70 70z" horiz-adv-x="1000" />

<glyph glyph-name="links" unicode="&#xe844;" d="M299 202l52-52 349 349-52 52-349-349z m638 550l-35 35c-58 58-152 58-209 0l-193-193c-39-39-51-94-38-143l91 91 79 79 114 114c29 29 76 29 105 0l35-35c29-29 29-76 0-105l-115-114-79-79-91-91c49-13 104-1 143 38l192 192c58 59 58 153 1 211l0 0z m-399-503c13-49 1-104-38-143l-192-193c-58-58-152-58-209 0l-35 35c-58 58-58 152 0 209l192 193c39 39 94 51 143 38l-91-91-52-52-140-140c-29-29-29-76 0-105l35-35c29-29 76-29 105 0l192 192v0l90 92z" horiz-adv-x="1000" />

<glyph glyph-name="loading_spinner" unicode="&#xe845;" d="M920 583l-50-35c32-59 50-127 50-198 0-232-188-420-420-420-124 0-236 54-313 140l-49-35c88-101 217-165 362-165 265 0 480 215 480 480 0 85-22 164-60 233l0 0z m-840-466c-38 69-60 148-60 233 0 265 215 480 480 480 145 0 274-64 362-165l-49-35c-77 86-189 140-313 140-232 0-420-188-420-420 0-72 18-139 50-198l-50-35z" horiz-adv-x="1000" />

<glyph glyph-name="mobile_vi_layout_layout" unicode="&#xe846;" d="M180 830v-100h-160v-860h860v160h100v800h-800z m640-900h-740v740h740v-740z m120 140h-60v660h-660v60h720v-720z" horiz-adv-x="1000" />

<glyph glyph-name="mobile_vi_layout_max" unicode="&#xe847;" d="M980 830l-258 0v-60h156l-329-328 42-42 329 328v-156h60l0 258 0 0 0 0z m-900-858l0 156h-60l0-258h0l0 0 258 0v60l-156 0 329 329-42 42-329-329z" horiz-adv-x="1000" />

<glyph glyph-name="mobile_vi_layout_min" unicode="&#xe848;" d="M938 830l-329-329v156h-60l0-258 0 0v0l258 0v60h-156l329 329-42 42z m-745-529v-60l156 0-329-329 42-42 329 329 0-156h60l0 258h0l0 0-258 0z" horiz-adv-x="1000" />

<glyph glyph-name="my_reports" unicode="&#xe849;" d="M460 660v100h-440v-820h960v720h-520z m259-660h-437c0 5-1 10-1 16 0 94 59 173 141 205-34 24-56 63-56 108 0 73 59 133 133 133s133-59 133-133c0-44-22-84-56-108 83-31 141-111 141-205 2-6 2-11 2-16z m201 520h-840v180h320v-100h30 490v-80z" horiz-adv-x="1000" />

<glyph glyph-name="navi_filter" unicode="&#xe84a;" d="M940 830h-880v-60l410-407v-493h60v493l410 407v60z m-440-413l-353 353h705l-352-353z" horiz-adv-x="1000" />

<glyph glyph-name="navi_prompt" unicode="&#xe84b;" d="M20 10h400v60h-400v-60z m915 270l-294-283-147 142-44-43 191-184 0 0 0 0 338 325-44 43z m-915 240h400v60h-400v-60z m915 270l-294-283-147 142-44-43 191-184 0 0 0 0 338 325-44 43z" horiz-adv-x="1000" />

<glyph glyph-name="offline_transactions" unicode="&#xe84c;" d="M349-69h381v-60h-480v60l0 0 630 630 50-50-581-580z m412 839v60h-480v-60h381l-580-580 50-50 629 630 0 0z" horiz-adv-x="1000" />

<glyph glyph-name="error_indicator" unicode="&#xe84d;" d="M500 830c-265 0-480-215-480-480s215-480 480-480 480 215 480 480-215 480-480 480z m-30-180h60v-400h-60v400z m30-600c-28 0-50 22-50 50s22 50 50 50 50-22 50-50-22-50-50-50z" horiz-adv-x="1000" />

<glyph glyph-name="offline_txn_global" unicode="&#xe84e;" d="M70 790h600v-60h-600v60z m0-410h600v-60h-600v60z m0-410h600v-60h-600v60z m720 860h140v-140h-140v140z m0-410h140v-140h-140v140z m0-410h140v-140h-140v140z" horiz-adv-x="1000" />

<glyph glyph-name="path_arrow_left" unicode="&#xe84f;" d="M761 786l-437-437 437-437-43-43-480 480 0 0 0 0 480 480 43-43z" horiz-adv-x="1000" />

<glyph glyph-name="path_arrow_right" unicode="&#xe850;" d="M239 786l437-437-437-438 43-43 480 480 0 0 0 0-480 480-43-42z" horiz-adv-x="1000" />

<glyph glyph-name="prompt_barcode" unicode="&#xe851;" d="M700 82h-25v538h25v-538z m-56 538h-25v-538h25v538z m156 0h-75v-538h75v538z m-212 0h-38v-538h38v538z m-338-538v538h-50v-538h50z m213 538h-88v-538h88v538z m-138 0h-50v-538h50v538z m655 210v-960h-960v960h960z m-60-60h-840v-840h840v840z" horiz-adv-x="1000" />

<glyph glyph-name="prompt_cg" unicode="&#xe852;" d="M280 830v-90h-200-30-30v-780h40 20 200v-90h700v240h-700v-90h-200v300h200v-90h700v240h-700v-90h-200v300h200v-90h700v240h-700z m640-780v-120h-580v120h580z m0 360v-120h-580v120h580z m0 240h-580v120h580v-120z" horiz-adv-x="1000" />

<glyph glyph-name="prompt_fact" unicode="&#xe853;" d="M101-130h64l98 270h336l-98-270h64l98 270h197v60h-175l109 300h186v60h-164l98 270h-64l-98-270h-336l98 270h-64l-98-270h-212v-60h190l-109-300h-201v-60h179l-98-270z m293 630h336l-109-300h-336l109 300z" horiz-adv-x="1000" />

<glyph glyph-name="prompt_geo_location" unicode="&#xe854;" d="M20 830v-960h960v960h-960z m900-900h-840v840h840v-840z m-420 740c-177 0-320-143-320-320s143-320 320-320 320 143 320 320-143 320-320 320z m20-599v119h-40v-119c-139 10-249 121-259 259h119v40h-119c10 139 121 249 259 259v-119h40v119c139-10 249-121 259-259h-119v-40h119c-10-139-120-249-259-259z" horiz-adv-x="1000" />

<glyph glyph-name="prompt_hierarchy_and" unicode="&#xe855;" d="M650 680c-54 0-105-13-150-36-45 23-96 36-150 36-182 0-330-148-330-330s148-330 330-330c54 0 105 13 150 36 45-23 96-36 150-36 182 0 330 148 330 330s-148 330-330 330z m290-318l-303-175c7 13 14 26 19 40l282 163c1-10 1-19 2-28z m-525-182c-5 7-9 14-14 21l239 137c0-10-1-20-3-30l-222-128z m220 115c-2-11-5-23-9-33l-188-109c-6 6-11 12-16 19l213 123z m-65 244c5-6 10-13 15-20l-222-128c2 11 4 22 6 32l201 116z m-196-101c4 13 9 25 14 37l157 90c6-6 12-12 18-18l-189-109z m217 73c5-7 9-14 13-21l-244-140 0 0c0 10 1 20 2 29l229 132z m17-29c4-7 7-15 10-22l-255-149c-1 9-2 18-2 27l247 144z m14-32c3-8 6-16 8-24l-260-150c-2 8-4 17-5 25l257 149z m10-35c2-9 4-18 5-27l-255-148c-3 8-6 17-9 25l259 150z m7-38c1-9 1-18 1-27 0 0 0 0 0-1l-243-140c-4 7-8 15-11 22l253 146z m297 22l-275-158c4 11 7 23 10 35l259 149c2-8 4-17 6-26z m-9 36l-253-146c2 10 3 20 4 31l240 139c4-8 7-16 9-24z m-12 33l-236-136c0 6 1 12 1 18 0 4 0 7 0 11l224 129c4-7 7-14 11-22z m-30 51c5-7 9-14 14-21l-220-127c-1 9-2 18-3 27l209 121z m-6 9l-204-119c-2 9-4 18-6 27l193 112c6-7 12-13 17-20z m-24 27l-189-109c-2 8-5 16-8 24l178 103c6-6 13-12 19-18z m-28 24l-174-100c-3 8-7 15-10 22l162 93c8-4 15-9 22-15z m-32 22l-157-91c-4 7-8 14-13 21l144 83c9-4 18-8 26-13z m-37 18l-138-79c-5 7-10 13-15 20l122 70c10-3 20-7 31-11z m-46 14l-114-66c-6 6-11 12-18 18l92 53c14 0 28-2 40-5z m-62 7c2 0 3 0 5 0l-81-47c-6 6-13 12-20 17l44 25c16 3 34 5 52 5z m-88-14l-17-10c-1 1-2 2-3 3 6 3 13 5 20 7z m-25-54l-140-81c9 17 20 33 33 47l86 50c7-5 14-11 21-16z m-31 22l-51-30c14 13 29 24 45 34 2-1 4-2 6-4z m-205 42l-174-101c43 52 104 89 174 101z m-190-121l215 124c8 1 16 1 24 1 9 0 17 0 26-1l-289-167c7 15 15 29 24 43z m-31-58l312 180c12-2 24-4 36-8l-359-207c3 12 7 23 11 35z m-14-49l375 217c6-2 12-4 17-6-16-11-30-24-44-37l-353-205c1 11 3 21 5 31z m-6-58c0 5 0 10 0 15l333 193c-12-15-23-30-32-47l-301-174c0 4 0 9 0 13z m1-24l292 169c-6-12-11-25-15-37l-273-159c-2 9-3 18-4 27z m6-37l267 154c-3-11-6-22-8-33l-253-146c-3 8-5 16-6 25z m9-35l247 143c-1-10-2-20-3-30l-235-136c-3 8-6 15-9 23z m14-32l230 133c0-2 0-3 0-5 0-8 0-15 1-23l-220-127c-4 8-8 15-11 22z m17-30l215 124c1-9 2-18 4-26l-205-118c-5 6-10 13-14 20z m21-28l200 116c2-8 4-17 6-25l-190-109c-5 5-11 12-16 18z m24-26l185 107c3-8 6-17 10-25l-174-100c-7 6-14 12-21 18z m30-24l169 97c3-7 7-15 11-22l-157-90c-8 4-15 9-23 15z m34-21l151 87c4-7 9-14 14-21l-138-79c-9 4-18 8-27 13z m39-17l131 76c5-7 10-13 16-19l-114-66c-11 2-22 5-33 9z m93-16c-15 0-30 1-44 4l106 61c6-6 12-13 19-19l-81-46z m97 16c-24-8-49-14-76-15l67 39c7-6 14-11 21-16l-12-8z m0 69l176 102c-5-14-12-27-19-40l-138-79c-6 5-13 11-19 17z m50-40c-8 5-15 10-22 16l118 68c-15-22-32-41-52-58l-44-26z m243-31l107 62c-30-28-67-50-107-62z m132 88l-168-97c-16-3-34-5-52-5-2 0-3 0-5 0l258 149c-9-17-20-33-33-47z m42 64l-285-165c-13 1-26 3-39 6l339 196c-4-13-9-25-15-37z m19 50l-357-206c-11 3-21 6-31 10l395 228c-3-10-5-21-7-32z m-350-162c17 16 32 35 45 54l314 182 0 0c0-10-1-19-1-29l-358-207z" horiz-adv-x="1000" />

<glyph glyph-name="prompt_hierarchy_locked_attribute" unicode="&#xe856;" d="M938 190h-8v10c0 29-8 55-22 78l72 72-480 480-480-480 480-480 80 80v-38c0-23 19-42 42-42h316c23 0 42 19 42 42v236c0 23-19 42-42 42z m-308 10v-10h-8c-23 0-42-19-42-42v-108l-80-80-390 390 390 390 390-390-26-26c-24 16-53 26-84 26-83 0-150-67-150-150z m170-184v-46h-40v46c-12 7-20 20-20 34 0 22 18 40 40 40s40-18 40-40c0-15-8-28-20-34z m70 174h-180v10c0 50 40 90 90 90s90-40 90-90v-10z" horiz-adv-x="1000" />

<glyph glyph-name="prompt_hierarchy_or" unicode="&#xe857;" d="M655 671c-54 0-105-13-150-36-45 23-96 36-150 36-182 0-330-148-330-330 0-182 148-330 330-330 54 0 105 13 150 36 45-23 96-36 150-36 182 0 330 148 330 330 0 182-148 330-330 330z m-113-108l-140-81c9 17 20 33 33 47l86 50c7-5 14-11 21-16z m-121-392c-5 7-9 14-14 21l238 137c0-10-1-20-3-30l-221-128z m219 115c-2-11-5-23-9-33l-188-109c-6 6-11 12-16 19l213 123z m-238-86c-4 7-8 15-11 22l253 146c1-9 1-18 1-27 0 0 0 0 0-1l-243-140z m-15 31c-3 8-6 17-9 25l260 150c2-9 4-18 5-27l-256-148z m-12 35c-2 8-4 17-5 25l258 149c3-8 6-16 8-24l-261-150z m-7 36c-1 9-2 18-2 27l248 143c4-7 7-15 10-22l-256-148z m-3 39c0 0 0 0 0 0 0 10 1 20 2 29l229 132c5-7 9-14 13-21l-244-140z m3 41c2 11 4 22 6 32l200 116c5-6 10-13 15-20l-221-128z m11 47c4 13 9 25 14 37l157 90c6-6 12-12 18-18l-189-109z m132 156l-51-30c14 13 29 24 45 34 2-1 4-3 6-4z m-156-534c-160 0-290 130-290 290 0 160 130 290 290 290 38 0 75-8 109-21-84-60-139-158-139-269s55-209 139-269c-34-14-70-21-109-21z m95 85l176 102c-5-14-12-27-19-40l-137-80c-7 6-14 12-20 18z m50-40c-8 5-15 10-22 16l118 68c-15-22-32-41-52-58l-44-26z m155-45c-38 0-75 8-109 21 84 60 139 158 139 269s-55 209-139 269c34 14 70 21 109 21 160 0 290-130 290-290 0-160-130-290-290-290z" horiz-adv-x="1000" />

<glyph glyph-name="prompt_no_element" unicode="&#xe858;" d="M500 830c-265 0-480-214-480-480 0-265 215-480 480-480s480 215 480 480c-1 266-215 480-480 480z m0-60c105 0 201-39 275-103l-592-592c-64 74-103 170-103 275 0 232 188 420 420 420z m0-840c-105 0-201 39-275 103l592 592c64-74 103-169 103-275 0-232-188-420-420-420z" horiz-adv-x="1000" />

<glyph glyph-name="pull_to_refresh" unicode="&#xe859;" d="M500 718l-438-437-42 42 477 477 3-3 3 3 477-477-42-43-438 438z m0-380l-438-437-42 42 477 477 3-3 3 3 477-477-42-43-438 438z" horiz-adv-x="1000" />

<glyph glyph-name="quick_sort_ascending" unicode="&#xe85a;" d="M500-70l0 0c232 0 420 188 420 420s-188 420-420 420-420-188-420-420 188-420 420-420l0 0z m0-60l0 0c-265 0-480 215-480 480s215 480 480 480 480-215 480-480-215-480-480-480l0 0z m3 770l-183-183 42-42 111 111v-476h60v476l111-111 42 42-183 183z" horiz-adv-x="1000" />

<glyph glyph-name="quick_sort_descending" unicode="&#xe85b;" d="M500-70l0 0c232 0 420 188 420 420s-188 420-420 420-420-188-420-420 188-420 420-420l0 0z m0-60l0 0c-265 0-480 215-480 480s215 480 480 480 480-215 480-480-215-480-480-480l0 0z m3 180l-183 183 42 42 111-111v476h60v-476l111 111 42-42-183-183z" horiz-adv-x="1000" />

<glyph glyph-name="radio_button" unicode="&#xe85c;" d="M500 210c77 0 140 63 140 140s-63 140-140 140-140-63-140-140 63-140 140-140z m0-280c-232 0-420 188-420 420s188 420 420 420 420-188 420-420-188-420-420-420m0 900c-265 0-480-215-480-480s215-480 480-480 480 215 480 480-215 480-480 480" horiz-adv-x="1000" />

<glyph glyph-name="recently_viewed" unicode="&#xe85d;" d="M500 830c-265 0-480-215-480-480s215-480 480-480 480 215 480 480-215 480-480 480z m0-900c-232 0-420 188-420 420s188 420 420 420 420-188 420-420-188-420-420-420z m30 780h-60v-355l-166-166 42-43 184 184 0 0v380z" horiz-adv-x="1000" />

<glyph glyph-name="release_to_refresh" unicode="&#xe85e;" d="M500-18l-438 437-42-42 477-477 3 3 3-3 477 477-42 43-438-438z m0 380l-438 437-42-42 477-477 3 3 3-3 477 477-42 43-438-438z" horiz-adv-x="1000" />

<glyph glyph-name="report_queue" unicode="&#xe85f;" d="M180-69h640v-60h-640v60z m0 900h640v-60h-640v60z m320-711c-53 0-107-51-133-98-11-19-17-62-17-62h300c0 0-6 43-17 62-26 46-79 98-133 98z m0 330c50 0 100 100 100 100h-200c0 0 50-100 100-100z m260 291h-60v-184l-139-166 0 0v-89l0 0 136-162v-178h60v200l0 0 0 0-136 162v45l139 166 0 0 0 0v206z m-381-372v-45l-136-162 0 0 0 0v-200h60v178l136 162 0 0v89l0 0-140 166v184h-60v-206l0 0 0 0 140-166z" horiz-adv-x="1000" />

<glyph glyph-name="save_to_photos" unicode="&#xe860;" d="M470 830v-430l-97 97-43-42 170-170 170 170-42 42-98-97v430h-60z m420-180v-780h-780v780h260v-60h-200v-570l155 212c15 22 41 36 70 32 24-3 45-17 56-37l98-143c3-4 7-7 12-7l2 0c3 0 6 1 9 3l47 50c21 21 52 28 82 15 13-6 23-15 31-26l99-150v621h-201v60h260z" horiz-adv-x="1000" />

<glyph glyph-name="selector" unicode="&#xe861;" d="M720 710h260v-60h-260v60z m-120-330h380v-60h-380v60z m-120-330h500v-60h-500v60z m118 680l-313-670-226 190-39-46 287-241 346 741-55 26z" horiz-adv-x="1000" />

<glyph glyph-name="settings" unicode="&#xe862;" d="M921 306h-82-45l-13-43c-5-16-12-32-21-50l-21-39 31-31 59-59-63-63-58 58-31 31-39-20c-18-10-34-17-50-22l-42-13v-44-81h-89v81 44l-42 13c-16 5-32 12-50 22l-39 21-33-31-58-58-63 63 59 59 31 31-20 39c-10 18-17 35-21 50l-13 42h-44-83v89h82 44l13 42c5 16 12 32 21 50l20 39-30 31-58 58 63 63 58-58 32-32 39 21c18 10 35 17 51 22l42 13v44 82h89v-81-44l42-13c16-5 32-12 50-22l39-21 31 31 58 58 63-63-59-58-31-31 20-39c10-18 17-34 21-50l13-42h44 83v-89z m19 148c-1 0-1 0 0 0l-101 0c-6 21-15 41-26 60l100 100-147 149-101-100c-19 10-40 20-61 26v141h-208v-141c-21-7-42-16-61-26l-100 101-149-148 101-100c-10-19-19-39-25-60h-142v-209h142c7-21 15-41 26-60l-100-100 148-148 100 101c19-10 40-19 61-26v-141h209v139c21 7 41 16 61 26l101-101 148 148-101 100c10 19 19 39 26 60h143v8 160 41h-44z m-438-323c121 0 220 99 220 220 0 121-98 220-220 220s-220-99-220-220 98-220 220-220l0 0z m0 40c-99 0-180 81-180 180s81 180 180 180 180-81 180-180c0-100-81-180-180-180l0 0z" horiz-adv-x="1000" />

<glyph glyph-name="star_fill" unicode="&#xe863;" d="M500 830l-148-316-332-51 240-246-57-347 297 164 297-164-57 347 240 246-332 51-148 316z" horiz-adv-x="1000" />

<glyph glyph-name="star_line" unicode="&#xe864;" d="M500 830l-148-316-332-51 240-246-57-347 297 164 297-164-57 347 240 246-332 51-148 316z m-176-592l-180 184 248 38 108 229 108-229 248-38-180-184 42-255-218 120-218-120 42 255z" horiz-adv-x="1000" />

<glyph glyph-name="subscribe_delete" unicode="&#xe865;" d="M120 181c-55 0-100-45-100-100 0-55 45-100 100-100s100 45 100 100c0 55-45 100-100 100l0 0z m850 22l-57 57-90-90c-4 13-8 26-13 38 0 0 0 0 0 0-123 314-418 540-770 562v-55c322-21 594-226 712-511h0c2-5 4-10 6-15l-71 71-57-57 113-113-113-113 57-57 113 113 113-113 57 57-113 113 113 113z m-441-121h-60c-68 177-232 306-429 322v56c228-16 418-169 489-378l0 0z" horiz-adv-x="1000" />

<glyph glyph-name="subscriptions_add" unicode="&#xe866;" d="M40 410v-56c197-16 361-145 429-322h60c-71 209-261 362-489 378z m940-300h-160v160h-63c-143 255-409 431-717 450v-55c312-20 576-213 700-484v-71h-160v-80h160v-160h80v160h160v80z m-860 21c55 0 100-45 100-100s-45-100-100-100-100 45-100 100 45 100 100 100z" horiz-adv-x="1000" />

<glyph glyph-name="subscriptions_cancel" unicode="&#xe867;" d="M40 410v-56c197-16 361-145 429-322h60c-71 209-261 362-489 378z m762-232c-127 303-418 521-762 542v-55c313-21 579-215 702-488 3-7 63-7 60 1z m-222-68h400v-80h-400v80z m-460 21c55 0 100-45 100-100s-45-100-100-100-100 45-100 100 45 100 100 100z" horiz-adv-x="1000" />

<glyph glyph-name="subscriptions" unicode="&#xe868;" d="M130-130c61 0 110 49 110 110s-49 110-110 110-110-49-110-110 49-110 110-110z m848 60c-28 483-415 870-898 900v-60c450-30 809-390 838-840m-301 1c-28 284-253 509-537 538v-60c250-28 448-227 476-477" horiz-adv-x="1000" />

<glyph glyph-name="tag" unicode="&#xe869;" d="M580 830l-9-9-550-551 1-1h-2v-369-30h399v3l2-2 557 558 1 1 0 0-398 399-1 1z m-501-585l501 501 317-317-500-500h-318v316z m240-146c-39 0-70 31-70 70s31 70 70 70 70-31 70-70-31-70-70-70m0 200c-72 0-130-58-130-130s58-130 130-130 130 58 130 130-58 130-130 130" horiz-adv-x="1000" />

<glyph glyph-name="up" unicode="&#xe86a;" d="M63 87l437 438 437-437 43 42-480 480 0 0 0 0-480-480 43-43z" horiz-adv-x="1000" />

<glyph glyph-name="prompt_metric" unicode="&#xe86b;" d="M820 380v210h-220v240h-580v-960h520 60 160 60 160v510h-160z m-280 210h-290v-60h290v-150h-230v-60h230v-150h-290v-60h290v-180h-460v840h460v-180z m220-210v-450h-160v600h160v-150z m160-450h-100v390h100v-390z" horiz-adv-x="1000" />

<glyph glyph-name="prompt_template" unicode="&#xe86c;" d="M20 830v-220-60-680h220 60 680v960h-960z m220-900h-160v620h160v-620z m0 680h-160v160h160v-160z m680-680h-620v620h620v-620z m0 680h-620v160h620v-160z" horiz-adv-x="1000" />

<glyph glyph-name="barcode_scanner" unicode="&#xe86d;" d="M300 780h140v-860h-140v860z m-160 0h80v-860h-80v860z m-120 0h80v-860h-80v860z m840 0h120v-860h-120v860z m-170 0h40v-860h-40v860z m90 0h40v-860h-40v860z m-200 0h60v-860h-60v860z" horiz-adv-x="1000" />

<glyph glyph-name="tree_selector_hierarchy" unicode="&#xe86e;" d="M20 830v-300h120v-140-50-10h210v-130h120v-150-20-40h210v-120h300v300h-300v-120h-150v150h120v300h-300v-110h-150v140h120v300h-300z" horiz-adv-x="1000" />

<glyph glyph-name="prompt_hierarchy" unicode="&#xe86f;" d="M830 230v50 30 30h-300v130h150v360h-360v-360h150v-130h-300v-30-30-50h-150v-360h360v360h-150v50h540v-50h-150v-360h360v360h-150z m-510-60v-240h-240v240h240z m60 360v240h240v-240h-240z m540-600h-240v240h240v-240z" horiz-adv-x="1000" />

<glyph glyph-name="prompt_consolidation" unicode="&#xe870;" d="M160 830v-60l130-130h-210-40-20v-580h20 40 210l-130-130v-60h820v60h-735l378 378 42 42-42 42-378 378h735v60h-820z m-80-250h270l230-230-230-230h-270v460z" horiz-adv-x="1000" />

<glyph glyph-name="back_to_left_beginning" unicode="&#xe871;" d="M980 380h-738l258 258-41 41-329-329 329-329 41 42-258 257h738v60z m-960 270v-600h60v600h-60z" horiz-adv-x="1000" />

<glyph glyph-name="back_to_top_beginning" unicode="&#xe872;" d="M470-130v738l-258-258-41 41 329 329 329-329-42-41-257 258v-738h-60z m-270 960h600v-60h-600v60z" horiz-adv-x="1000" />

<glyph glyph-name="ascending_horizontal" unicode="&#xe873;" d="M840 190h60v640h-60v-640z m-370 0h60v460h-60v-460z m-370 0h60v280h-60v-280z m0-90v-60 0l170-170 42 42-127 128h715v60h-800z" horiz-adv-x="1000" />

<glyph glyph-name="descending_horizontal" unicode="&#xe874;" d="M160 190h-60v640h60v-640z m370 0h-60v460h60v-460z m370 0h-60v280h60v-280z m0-90v-60 0l-170-170-42 42 127 128h-715v60h800z" horiz-adv-x="1000" />

<glyph glyph-name="clear_sort_vertical" unicode="&#xe875;" d="M600 830v-960h60v0l0 0 212 212-42 43-170-170v875h-60z m-268 0l0 0 0 0-212-212 42-42 170 170v-876h60v960h-60z" horiz-adv-x="1000" />

<glyph glyph-name="clear_sort_horizontal" unicode="&#xe876;" d="M976 246h-960v-60h0l0 0 212-212 42 42-170 170h875v60z m0 268l0 0 0 0-212 212-42-42 170-170h-876v-60h960v60z" horiz-adv-x="1000" />

<glyph glyph-name="descending_vertical" unicode="&#xe877;" d="M340 690v60h640v-60h-640z m0-370v60h460v-60h-460z m0-370v60h280v-60h-280z m-90 0h-60 0l-170 170 42 42 128-127v715h60v-800z" horiz-adv-x="1000" />

<glyph glyph-name="ascending_vertical" unicode="&#xe878;" d="M340 10v-60h640v60h-640z m0 370v-60h460v60h-460z m0 370v-60h280v60h-280z m-90 0h-60 0l-170-170 42-42 128 127v-715h60v800z" horiz-adv-x="1000" />

<glyph glyph-name="help" unicode="&#xe879;" d="M624 608c-15 14-32 24-52 31-20 7-42 11-67 11-27 0-52-5-74-14-22-10-40-23-56-40-15-17-27-38-35-61s-10-50-10-77h67c0 19 2 36 6 52 4 16 11 30 20 42 9 12 20 21 34 28 14 7 30 10 49 10 28 0 50-8 67-25 16-17 26-40 28-69 1-20-1-37-7-50-6-13-14-27-24-38-10-11-20-22-31-33-11-10-22-22-32-34-10-12-19-26-26-42-7-16-11-35-12-57v-38h67v31c0 14 2 26 6 37 4 11 9 21 16 30 7 9 14 18 22 26s16 16 25 24c8 9 17 17 25 26 8 9 15 19 22 30 6 11 11 23 15 36 4 13 6 28 6 44 0 26-4 48-12 68-11 22-22 38-37 52m-124-458c28 0 50-22 50-50s-22-50-50-50-50 22-50 50 22 50 50 50m0 680c-265 0-480-215-480-480s215-480 480-480 480 215 480 480-215 480-480 480z m0-900c-232 0-420 188-420 420s188 420 420 420 420-188 420-420-188-420-420-420z" horiz-adv-x="1000" />

<glyph glyph-name="sort" unicode="&#xe87a;" d="M400 770h580v60h-580v-60z m-176 60v-875l-162 161-42-42 204-204h60v960h-60z m176-360h480v60h-480v-60z m0-300h380v60h-380v-60z m0-300h280v60h-280v-60z" horiz-adv-x="1000" />

<glyph glyph-name="square_lasso" unicode="&#xe87b;" d="M20 710l0 0v-180h60v180h-60z m0-240l0 0v-180h60v180h-60z m0-240l0 0v-180h60v180h-60z m180 600v-60h-180v30 30h180l0 0z m240 0v-60h-180v30 30h180l0 0z m240 0v-60h-180v30 30h180l0 0z m-420-900v-60h-240v120h60v-60h180z m240 0v-60h-180v30 30h180l0 0z m240 0v-60h-180v30 30h180l0 0z m240 60l0 0v180h-60v-180h60z m0 240l0 0v180h-60v-180h60z m0 240l0 0v180h-60v-180h60z m0 360v-120h-60v60h-180v30 30h240z m-180-960v60h180v-30-30h-180l0 0z" horiz-adv-x="1000" />

<glyph glyph-name="free_lasso" unicode="&#xe87c;" d="M374-70c14-14 29-28 45-42l40 44c-15 14-29 27-43 41l-42-43z m-64 157c35 6 75 11 124 16l-6 60c-65-6-114-13-159-22-2 3-4 6-6 9l-49-34c32-47 71-94 117-142l43 41c-23 24-44 48-64 72l0 0z m-203 256c13-56 37-114 72-174l51 31c-33 55-54 107-65 157l-58-14z m50 68c-4 58 7 111 32 158l-53 28c-31-57-44-121-39-191l60 5z m193 303l-25 54c-62-28-114-68-153-116l47-38c33 41 78 75 131 100l0 0z m220 46l2 60c-63 2-127-8-187-27l19-57c52 17 110 25 166 24l0 0z m244-12c-52 34-113 56-180 66l-9-59c58-8 111-28 156-57l33 50z m150-207c-18 66-52 123-99 167l-41-44c39-37 67-84 82-140l58 17z m13-64l-60-7c2-17 3-34 3-52 0-43-8-78-23-107l53-28c20 38 30 82 30 135 0 21-1 40-3 59l0 0z m-256-277l14-58c75 18 133 45 174 86l-42 43c-32-32-80-55-146-71l0 0z m-229-31c-2 0-2 0-3 0l5-60c2 0 2 0 3 0 89 8 130 13 177 21l-10 59c-45-8-85-12-172-20l0 0z m-305-49l18-57c-61-19-108-46-141-82l-44 41c41 45 97 76 167 98l0 0z" horiz-adv-x="1000" />

<glyph glyph-name="multi_tap" unicode="&#xe87d;" d="M308-70l-164 400c-11 26 2 55 27 65 26 10 55-2 65-27l72-174 62 10v526c0 22 18 40 40 40 22 0 40-18 40-40v-360h60v95c48-9 98-21 146-36 105-34 175-78 195-126 17-40 3-111-39-202-20-43-46-89-76-137-7-11-15-23-22-34h-406z m478 0c79 123 164 294 121 396-51 120-266 176-397 199v205c0 55-45 100-100 100-55 0-100-45-100-100v-384l-18 44c-23 56-87 83-144 60-56-23-83-87-60-144l155-376 25-60h479l39 60z" horiz-adv-x="1000" />

<glyph glyph-name="security_locked" unicode="&#xe87e;" d="M680 510h-360v20c0 99 81 180 180 180s180-81 180-180v-20z m-140-349v-91h-80v91c-24 14-40 39-40 69 0 44 36 80 80 80s80-36 80-80c0-30-16-55-40-69l0 0z m276 349h-16v20c0 166-134 300-300 300s-300-134-300-300v-20h-16c-47 0-84-38-84-84v-471c0-47 38-84 84-84h631c47 0 84 38 84 84v471c1 46-37 84-83 84l0 0z" horiz-adv-x="1000" />

<glyph glyph-name="shortcut" unicode="&#xe87f;" d="M980 456l-352-353-98 99 185 186c-15 1-30 2-45 2-282 0-510-228-510-510 0-3 0-7 0-10h-140c0 3 0 7 0 10 0 359 291 650 650 650 14 0 28-1 41-1l-181 182 98 99 352-354z" horiz-adv-x="1000" />

<glyph glyph-name="empty" unicode="&#xe880;" d="M686 290l-70-70h-232l-70 70h-165l218 300h265l218-300h-164z m204-20l-247 340h-286l-247-340h196l70-70h248l70 70h196z m10-200h-800c-11 0-20 9-20 20v179l262 361h316l262-361v-179c0-11-9-20-20-20l0 0z m80 219l-291 401h-378l-291-401v-219c0-33 27-60 60-60h840c33 0 60 27 60 60v219z" horiz-adv-x="1000" />

<glyph glyph-name="ra_filter_collapse" unicode="&#xe8cc;" d="M200 390h600v-80h-600v80z m780 240v-560c0-111-89-200-200-200h-560c-110 0-200 89-200 200v560c0 110 89 200 200 200h560c110 0 200-89 200-200z m-60 0c0 77-63 140-140 140h-560c-77 0-140-63-140-140v-560c0-77 63-140 140-140h560c77 0 140 63 140 140v560z" horiz-adv-x="1000" />

<glyph glyph-name="ra_filter_expand" unicode="&#xe8cd;" d="M540 390h260v-80h-260v-260h-80v260h-260v80h260v260h80v-260z m440 240v-560c0-111-89-200-200-200h-560c-110 0-200 89-200 200v560c0 110 89 200 200 200h560c110 0 200-89 200-200z m-60 0c0 77-63 140-140 140h-560c-77 0-140-63-140-140v-560c0-77 63-140 140-140h560c77 0 140 63 140 140v560z" horiz-adv-x="1000" />

<glyph glyph-name="legend-arrow_left" unicode="&#xe902;" d="M920-130l-840 480 840 480v-960z" horiz-adv-x="1000" />

<glyph glyph-name="legend-arrow_right" unicode="&#xe903;" d="M80-130l840 480-840 480v-960z" horiz-adv-x="1000" />
</font>
</defs>
</svg>
